<svg width="800" height="600" viewBox="0 0 800 600" fill="none" xmlns="http://www.w3.org/2000/svg">
  <rect width="800" height="600" fill="#F5F5F5"/>
  
  <!-- Room Outline -->
  <rect x="100" y="100" width="600" height="400" fill="#FFFFFF" stroke="#333333" stroke-width="2"/>
  
  <!-- Floor -->
  <rect x="100" y="450" width="600" height="50" fill="#D2B48C"/>
  
  <!-- Window -->
  <rect x="150" y="150" width="200" height="150" fill="#87CEEB" opacity="0.7"/>
  <line x1="250" y1="150" x2="250" y2="300" stroke="#333333" stroke-width="2"/>
  <line x1="150" y1="225" x2="350" y2="225" stroke="#333333" stroke-width="2"/>
  
  <!-- Sofa -->
  <rect x="400" y="350" width="250" height="100" rx="10" fill="#6A5ACD"/>
  <rect x="400" y="320" width="250" height="30" rx="5" fill="#483D8B"/>
  <rect x="400" y="350" width="30" height="100" rx="5" fill="#483D8B"/>
  <rect x="620" y="350" width="30" height="100" rx="5" fill="#483D8B"/>
  
  <!-- Coffee Table -->
  <rect x="450" y="250" width="150" height="50" rx="5" fill="#8B4513"/>
  <rect x="470" y="300" width="10" height="50" fill="#8B4513"/>
  <rect x="570" y="300" width="10" height="50" fill="#8B4513"/>
  
  <!-- Plant -->
  <rect x="150" y="350" width="50" height="100" fill="#8B4513"/>
  <circle cx="175" cy="320" r="50" fill="#228B22"/>
  
  <!-- Lamp -->
  <rect x="600" y="200" width="10" height="150" fill="#333333"/>
  <path d="M605 200 L 580 150 L 630 150 Z" fill="#FFFF00" opacity="0.3"/>
  
  <!-- Text -->
  <text x="400" y="50" font-family="Arial" font-size="24" fill="#333333" text-anchor="middle">INTERIOR DESIGN</text>
  <text x="400" y="80" font-family="Arial" font-size="16" fill="#666666" text-anchor="middle">CREATING BEAUTIFUL LIVING SPACES</text>
</svg>