<svg width="800" height="600" viewBox="0 0 800 600" fill="none" xmlns="http://www.w3.org/2000/svg">
  <rect width="800" height="600" fill="#1A1A2E"/>
  
  <!-- Office Building -->
  <rect x="200" y="100" width="400" height="450" fill="#16213E"/>
  
  <!-- Windows Grid -->
  <g opacity="0.9">
    <!-- Row 1 -->
    <rect x="230" y="130" width="50" height="40" fill="#94A3B8"/>
    <rect x="300" y="130" width="50" height="40" fill="#94A3B8"/>
    <rect x="370" y="130" width="50" height="40" fill="#94A3B8"/>
    <rect x="440" y="130" width="50" height="40" fill="#94A3B8"/>
    <rect x="510" y="130" width="50" height="40" fill="#94A3B8"/>
    
    <!-- Row 2 -->
    <rect x="230" y="190" width="50" height="40" fill="#94A3B8"/>
    <rect x="300" y="190" width="50" height="40" fill="#94A3B8"/>
    <rect x="370" y="190" width="50" height="40" fill="#94A3B8"/>
    <rect x="440" y="190" width="50" height="40" fill="#94A3B8"/>
    <rect x="510" y="190" width="50" height="40" fill="#94A3B8"/>
    
    <!-- Row 3 -->
    <rect x="230" y="250" width="50" height="40" fill="#94A3B8"/>
    <rect x="300" y="250" width="50" height="40" fill="#94A3B8"/>
    <rect x="370" y="250" width="50" height="40" fill="#94A3B8"/>
    <rect x="440" y="250" width="50" height="40" fill="#94A3B8"/>
    <rect x="510" y="250" width="50" height="40" fill="#94A3B8"/>
    
    <!-- Row 4 -->
    <rect x="230" y="310" width="50" height="40" fill="#94A3B8"/>
    <rect x="300" y="310" width="50" height="40" fill="#94A3B8"/>
    <rect x="370" y="310" width="50" height="40" fill="#94A3B8"/>
    <rect x="440" y="310" width="50" height="40" fill="#94A3B8"/>
    <rect x="510" y="310" width="50" height="40" fill="#94A3B8"/>
    
    <!-- Row 5 -->
    <rect x="230" y="370" width="50" height="40" fill="#94A3B8"/>
    <rect x="300" y="370" width="50" height="40" fill="#94A3B8"/>
    <rect x="370" y="370" width="50" height="40" fill="#94A3B8"/>
    <rect x="440" y="370" width="50" height="40" fill="#94A3B8"/>
    <rect x="510" y="370" width="50" height="40" fill="#94A3B8"/>
  </g>
  
  <!-- Entrance -->
  <rect x="350" y="450" width="100" height="100" fill="#0F3460"/>
  
  <!-- City Skyline Background -->
  <rect x="50" y="350" width="30" height="200" fill="#0F3460" opacity="0.5"/>
  <rect x="100" y="300" width="40" height="250" fill="#0F3460" opacity="0.5"/>
  <rect x="650" y="320" width="35" height="230" fill="#0F3460" opacity="0.5"/>
  <rect x="700" y="380" width="50" height="170" fill="#0F3460" opacity="0.5"/>
  
  <!-- Ground -->
  <rect x="0" y="550" width="800" height="50" fill="#0F3460"/>
  
  <!-- Text -->
  <text x="400" y="50" font-family="Arial" font-size="24" fill="#E2E8F0" text-anchor="middle">URBAN OFFICE COMPLEX</text>
  <text x="400" y="80" font-family="Arial" font-size="16" fill="#94A3B8" text-anchor="middle">COMMERCIAL PROJECT</text>
</svg>