<svg width="800" height="600" viewBox="0 0 800 600" fill="none" xmlns="http://www.w3.org/2000/svg">
  <!-- Background -->
  <rect width="800" height="600" fill="#263238"/>
  
  <!-- Sky -->
  <rect x="0" y="0" width="800" height="300" fill="#37474F"/>
  
  <!-- Ground -->
  <rect x="0" y="300" width="800" height="300" fill="#455A64"/>
  
  <!-- Sustainable Apartment Building -->
  <g>
    <!-- Main Structure -->
    <rect x="200" y="100" width="400" height="350" fill="#78909C" stroke="#CFD8DC" stroke-width="2"/>
    
    <!-- Windows Grid -->
    <g>
      <!-- Row 1 -->
      <rect x="220" y="120" width="40" height="40" fill="#82B1FF" opacity="0.7"/>
      <rect x="280" y="120" width="40" height="40" fill="#82B1FF" opacity="0.7"/>
      <rect x="340" y="120" width="40" height="40" fill="#82B1FF" opacity="0.7"/>
      <rect x="400" y="120" width="40" height="40" fill="#82B1FF" opacity="0.7"/>
      <rect x="460" y="120" width="40" height="40" fill="#82B1FF" opacity="0.7"/>
      <rect x="520" y="120" width="40" height="40" fill="#82B1FF" opacity="0.7"/>
      
      <!-- Row 2 -->
      <rect x="220" y="180" width="40" height="40" fill="#82B1FF" opacity="0.7"/>
      <rect x="280" y="180" width="40" height="40" fill="#82B1FF" opacity="0.7"/>
      <rect x="340" y="180" width="40" height="40" fill="#82B1FF" opacity="0.7"/>
      <rect x="400" y="180" width="40" height="40" fill="#82B1FF" opacity="0.7"/>
      <rect x="460" y="180" width="40" height="40" fill="#82B1FF" opacity="0.7"/>
      <rect x="520" y="180" width="40" height="40" fill="#82B1FF" opacity="0.7"/>
      
      <!-- Row 3 -->
      <rect x="220" y="240" width="40" height="40" fill="#82B1FF" opacity="0.7"/>
      <rect x="280" y="240" width="40" height="40" fill="#82B1FF" opacity="0.7"/>
      <rect x="340" y="240" width="40" height="40" fill="#82B1FF" opacity="0.7"/>
      <rect x="400" y="240" width="40" height="40" fill="#82B1FF" opacity="0.7"/>
      <rect x="460" y="240" width="40" height="40" fill="#82B1FF" opacity="0.7"/>
      <rect x="520" y="240" width="40" height="40" fill="#82B1FF" opacity="0.7"/>
      
      <!-- Row 4 -->
      <rect x="220" y="300" width="40" height="40" fill="#82B1FF" opacity="0.7"/>
      <rect x="280" y="300" width="40" height="40" fill="#82B1FF" opacity="0.7"/>
      <rect x="340" y="300" width="40" height="40" fill="#82B1FF" opacity="0.7"/>
      <rect x="400" y="300" width="40" height="40" fill="#82B1FF" opacity="0.7"/>
      <rect x="460" y="300" width="40" height="40" fill="#82B1FF" opacity="0.7"/>
      <rect x="520" y="300" width="40" height="40" fill="#82B1FF" opacity="0.7"/>
    </g>
    
    <!-- Entrance -->
    <rect x="370" y="400" width="60" height="50" fill="#5D4037"/>
    <circle cx="420" cy="425" r="3" fill="#FFC107"/>
    
    <!-- Solar Panels on Roof -->
    <rect x="220" y="80" width="360" height="20" fill="#1A237E"/>
    <g>
      <rect x="230" y="85" width="40" height="10" fill="#3F51B5"/>
      <rect x="280" y="85" width="40" height="10" fill="#3F51B5"/>
      <rect x="330" y="85" width="40" height="10" fill="#3F51B5"/>
      <rect x="380" y="85" width="40" height="10" fill="#3F51B5"/>
      <rect x="430" y="85" width="40" height="10" fill="#3F51B5"/>
      <rect x="480" y="85" width="40" height="10" fill="#3F51B5"/>
      <rect x="530" y="85" width="40" height="10" fill="#3F51B5"/>
    </g>
    
    <!-- Green Roof Garden -->
    <rect x="220" y="100" width="360" height="10" fill="#388E3C"/>
    <circle cx="240" cy="105" r="3" fill="#81C784"/>
    <circle cx="260" cy="105" r="3" fill="#81C784"/>
    <circle cx="280" cy="105" r="3" fill="#81C784"/>
    <circle cx="300" cy="105" r="3" fill="#81C784"/>
    <circle cx="320" cy="105" r="3" fill="#81C784"/>
    <circle cx="340" cy="105" r="3" fill="#81C784"/>
    <circle cx="360" cy="105" r="3" fill="#81C784"/>
    <circle cx="380" cy="105" r="3" fill="#81C784"/>
    <circle cx="400" cy="105" r="3" fill="#81C784"/>
    <circle cx="420" cy="105" r="3" fill="#81C784"/>
    <circle cx="440" cy="105" r="3" fill="#81C784"/>
    <circle cx="460" cy="105" r="3" fill="#81C784"/>
    <circle cx="480" cy="105" r="3" fill="#81C784"/>
    <circle cx="500" cy="105" r="3" fill="#81C784"/>
    <circle cx="520" cy="105" r="3" fill="#81C784"/>
    <circle cx="540" cy="105" r="3" fill="#81C784"/>
    <circle cx="560" cy="105" r="3" fill="#81C784"/>
  </g>
  
  <!-- Landscaping -->
  <g>
    <!-- Trees -->
    <rect x="150" y="350" width="10" height="50" fill="#5D4037"/>
    <circle cx="155" cy="320" r="30" fill="#388E3C"/>
    
    <rect x="640" y="350" width="10" height="50" fill="#5D4037"/>
    <circle cx="645" cy="320" r="30" fill="#388E3C"/>
    
    <!-- Bushes -->
    <ellipse cx="250" cy="430" rx="30" ry="20" fill="#2E7D32"/>
    <ellipse cx="550" cy="430" rx="30" ry="20" fill="#2E7D32"/>
    
    <!-- Bike Rack -->
    <line x1="300" y1="450" x2="350" y2="450" stroke="#9E9E9E" stroke-width="3"/>
    <line x1="300" y1="450" x2="300" y2="440" stroke="#9E9E9E" stroke-width="2"/>
    <line x1="310" y1="450" x2="310" y2="440" stroke="#9E9E9E" stroke-width="2"/>
    <line x1="320" y1="450" x2="320" y2="440" stroke="#9E9E9E" stroke-width="2"/>
    <line x1="330" y1="450" x2="330" y2="440" stroke="#9E9E9E" stroke-width="2"/>
    <line x1="340" y1="450" x2="340" y2="440" stroke="#9E9E9E" stroke-width="2"/>
    <line x1="350" y1="450" x2="350" y2="440" stroke="#9E9E9E" stroke-width="2"/>
    
    <!-- Electric Car Charging Station -->
    <rect x="450" y="450" width="30" height="50" fill="#9E9E9E"/>
    <rect x="460" y="430" width="10" height="20" fill="#4CAF50"/>
    <line x1="465" y1="430" x2="465" y2="410" stroke="#9E9E9E" stroke-width="2"/>
    <circle cx="465" cy="405" r="5" fill="#4CAF50"/>
  </g>
  
  <!-- Sustainability Symbols -->
  <g>
    <!-- Wind Turbine -->
    <rect x="100" y="250" width="5" height="100" fill="#BDBDBD"/>
    <circle cx="102.5" cy="250" r="2" fill="#BDBDBD"/>
    <line x1="102.5" y1="250" x2="122.5" y2="240" stroke="#EEEEEE" stroke-width="2"/>
    <line x1="102.5" y1="250" x2="82.5" y2="240" stroke="#EEEEEE" stroke-width="2"/>
    <line x1="102.5" y1="250" x2="102.5" y2="230" stroke="#EEEEEE" stroke-width="2"/>
    
    <!-- Recycling Symbol -->
    <circle cx="700" cy="200" r="30" fill="none" stroke="#4CAF50" stroke-width="2"/>
    <path d="M685 210 L 700 190 L 715 210" stroke="#4CAF50" stroke-width="2" fill="none"/>
    <path d="M685 190 L 700 210 L 715 190" stroke="#4CAF50" stroke-width="2" fill="none"/>
  </g>
  
  <!-- Text -->
  <text x="400" y="50" font-family="Arial" font-size="24" fill="#FFFFFF" text-anchor="middle">ECO APARTMENTS</text>
  <text x="400" y="80" font-family="Arial" font-size="16" fill="#B0BEC5" text-anchor="middle">SUSTAINABLE RESIDENTIAL COMPLEX</text>
</svg>