<svg width="400" height="500" viewBox="0 0 400 500" fill="none" xmlns="http://www.w3.org/2000/svg">
  <rect width="400" height="500" fill="#E0E0E0"/>
  
  <!-- Background -->
  <rect x="0" y="0" width="400" height="500" fill="#263238"/>
  <rect x="0" y="350" width="400" height="150" fill="#37474F"/>
  
  <!-- Head -->
  <circle cx="200" cy="150" r="80" fill="#FFCC80"/>
  
  <!-- Hair -->
  <path d="M140 90 Q 200 60 260 90 L 270 150 Q 240 190 200 190 Q 160 190 130 150 Z" fill="#212121"/>
  <path d="M140 90 Q 170 80 200 90 Q 230 80 260 90 L 260 110 Q 230 100 200 110 Q 170 100 140 110 Z" fill="#424242"/>
  
  <!-- Glasses -->
  <rect x="155" y="125" width="30" height="20" rx="5" fill="none" stroke="#9E9E9E" stroke-width="2"/>
  <rect x="215" y="125" width="30" height="20" rx="5" fill="none" stroke="#9E9E9E" stroke-width="2"/>
  <line x1="185" y1="135" x2="215" y2="135" stroke="#9E9E9E" stroke-width="2"/>
  
  <!-- Eyes -->
  <ellipse cx="170" cy="135" rx="8" ry="4" fill="#333333"/>
  <ellipse cx="230" cy="135" rx="8" ry="4" fill="#333333"/>
  
  <!-- Nose -->
  <path d="M200 135 L 195 150 L 205 150 Z" fill="#FFCC80" stroke="#E8A468" stroke-width="1"/>
  
  <!-- Mouth -->
  <path d="M185 165 Q 200 175 215 165" stroke="#333333" stroke-width="2"/>
  
  <!-- Neck -->
  <rect x="185" y="190" width="30" height="40" fill="#FFCC80"/>
  
  <!-- Body/Suit -->
  <path d="M150 230 L 250 230 L 270 400 L 130 400 Z" fill="#0277BD"/>
  <rect x="150" y="230" width="100" height="30" fill="#FFFFFF"/>
  
  <!-- Tie -->
  <path d="M195 230 L 205 230 L 210 260 L 200 280 L 190 260 L 195 230 Z" fill="#4CAF50"/>
  
  <!-- Arms -->
  <path d="M150 230 L 120 300 L 130 310 L 160 250 Z" fill="#0277BD"/>
  <path d="M250 230 L 280 300 L 270 310 L 240 250 Z" fill="#0277BD"/>
  
  <!-- Hands -->
  <circle cx="120" cy="310" r="15" fill="#FFCC80"/>
  <circle cx="280" cy="310" r="15" fill="#FFCC80"/>
  
  <!-- Pen in Hand -->
  <line x1="120" y1="300" x2="140" y2="320" stroke="#212121" stroke-width="2"/>
  
  <!-- Text Area -->
  <rect x="50" y="420" width="300" height="60" fill="#37474F"/>
  
  <!-- Text -->
  <text x="200" y="440" font-family="Arial" font-size="18" fill="#FFFFFF" text-anchor="middle">DAVID CHEN</text>
  <text x="200" y="465" font-family="Arial" font-size="14" fill="#B0BEC5" text-anchor="middle">STRUCTURAL ENGINEER</text>
</svg>