<svg width="400" height="500" viewBox="0 0 400 500" fill="none" xmlns="http://www.w3.org/2000/svg">
  <rect width="400" height="500" fill="#E0E0E0"/>
  
  <!-- Background -->
  <rect x="0" y="0" width="400" height="500" fill="#263238"/>
  <rect x="0" y="350" width="400" height="150" fill="#37474F"/>
  
  <!-- Head -->
  <circle cx="200" cy="150" r="80" fill="#FFCC80"/>
  
  <!-- Hair -->
  <path d="M140 100 Q 200 50 260 100 L 260 150 Q 230 170 200 170 Q 170 170 140 150 Z" fill="#5D4037"/>
  
  <!-- Eyes -->
  <ellipse cx="170" cy="130" rx="10" ry="5" fill="#333333"/>
  <ellipse cx="230" cy="130" rx="10" ry="5" fill="#333333"/>
  
  <!-- Eyebrows -->
  <path d="M160 120 Q 170 115 180 120" stroke="#5D4037" stroke-width="2"/>
  <path d="M220 120 Q 230 115 240 120" stroke="#5D4037" stroke-width="2"/>
  
  <!-- Nose -->
  <path d="M200 130 L 195 145 L 205 145 Z" fill="#FFCC80" stroke="#E8A468" stroke-width="1"/>
  
  <!-- Mouth -->
  <path d="M180 160 Q 200 170 220 160" stroke="#333333" stroke-width="2"/>
  
  <!-- Neck -->
  <rect x="185" y="190" width="30" height="40" fill="#FFCC80"/>
  
  <!-- Body/Suit -->
  <path d="M150 230 L 250 230 L 270 400 L 130 400 Z" fill="#455A64"/>
  <rect x="150" y="230" width="100" height="30" fill="#FFFFFF"/>
  
  <!-- Tie -->
  <path d="M195 230 L 205 230 L 210 260 L 200 280 L 190 260 L 195 230 Z" fill="#F44336"/>
  
  <!-- Arms -->
  <path d="M150 230 L 120 300 L 130 310 L 160 250 Z" fill="#455A64"/>
  <path d="M250 230 L 280 300 L 270 310 L 240 250 Z" fill="#455A64"/>
  
  <!-- Hands -->
  <circle cx="120" cy="310" r="15" fill="#FFCC80"/>
  <circle cx="280" cy="310" r="15" fill="#FFCC80"/>
  
  <!-- Text Area -->
  <rect x="50" y="420" width="300" height="60" fill="#37474F"/>
  
  <!-- Text -->
  <text x="200" y="440" font-family="Arial" font-size="18" fill="#FFFFFF" text-anchor="middle">ALEXANDER MITCHELL</text>
  <text x="200" y="465" font-family="Arial" font-size="14" fill="#B0BEC5" text-anchor="middle">PRINCIPAL ARCHITECT</text>
</svg>