<svg width="200" height="200" viewBox="0 0 200 200" fill="none" xmlns="http://www.w3.org/2000/svg">
  <!-- Background Circle -->
  <circle cx="100" cy="100" r="100" fill="#263238"/>
  
  <!-- Head -->
  <circle cx="100" cy="85" r="40" fill="#FFCC80"/>
  
  <!-- Hair -->
  <path d="M70 55 Q 100 35 130 55 L 135 85 Q 120 105 100 105 Q 80 105 65 85 Z" fill="#212121"/>
  <path d="M70 55 Q 85 50 100 55 Q 115 50 130 55 L 130 65 Q 115 60 100 65 Q 85 60 70 65 Z" fill="#424242"/>
  
  <!-- Glasses -->
  <rect x="77.5" y="72.5" width="15" height="10" rx="2.5" fill="none" stroke="#9E9E9E" stroke-width="1"/>
  <rect x="107.5" y="72.5" width="15" height="10" rx="2.5" fill="none" stroke="#9E9E9E" stroke-width="1"/>
  <line x1="92.5" y1="77.5" x2="107.5" y2="77.5" stroke="#9E9E9E" stroke-width="1"/>
  
  <!-- Eyes -->
  <ellipse cx="85" cy="77.5" rx="4" ry="2" fill="#333333"/>
  <ellipse cx="115" cy="77.5" rx="4" ry="2" fill="#333333"/>
  
  <!-- Nose -->
  <path d="M100 77.5 L 97.5 85 L 102.5 85 Z" fill="#FFCC80" stroke="#E8A468" stroke-width="0.5"/>
  
  <!-- Mouth -->
  <path d="M92.5 92.5 Q 100 97.5 107.5 92.5" stroke="#333333" stroke-width="1"/>
  
  <!-- Beard -->
  <path d="M85 90 Q 100 105 115 90 L 110 105 Q 100 110 90 105 Z" fill="#5D4037" opacity="0.7"/>
  
  <!-- Neck -->
  <rect x="92.5" y="105" width="15" height="20" fill="#FFCC80"/>
  
  <!-- Body/Suit -->
  <path d="M75 125 L 125 125 L 135 180 L 65 180 Z" fill="#0277BD"/>
  <rect x="75" y="125" width="50" height="15" fill="#FFFFFF"/>
  
  <!-- Tie -->
  <path d="M97.5 125 L 102.5 125 L 105 140 L 100 150 L 95 140 L 97.5 125 Z" fill="#4CAF50"/>
  
  <!-- Text -->
  <text x="100" y="195" font-family="Arial" font-size="10" fill="#FFFFFF" text-anchor="middle">MICHAEL RODRIGUEZ</text>
</svg>