<svg width="200" height="200" viewBox="0 0 200 200" fill="none" xmlns="http://www.w3.org/2000/svg">
  <!-- Background Circle -->
  <circle cx="100" cy="100" r="100" fill="#263238"/>
  
  <!-- Head -->
  <circle cx="100" cy="85" r="40" fill="#FFCC80"/>
  
  <!-- Hair -->
  <path d="M70 60 Q 100 30 130 60 L 130 85 Q 115 95 100 95 Q 85 95 70 85 Z" fill="#5D4037"/>
  
  <!-- Eyes -->
  <ellipse cx="85" cy="75" rx="5" ry="2.5" fill="#333333"/>
  <ellipse cx="115" cy="75" rx="5" ry="2.5" fill="#333333"/>
  
  <!-- Eyebrows -->
  <path d="M80 70 Q 85 67 90 70" stroke="#5D4037" stroke-width="1"/>
  <path d="M110 70 Q 115 67 120 70" stroke="#5D4037" stroke-width="1"/>
  
  <!-- Nose -->
  <path d="M100 75 L 97 82 L 103 82 Z" fill="#FFCC80" stroke="#E8A468" stroke-width="0.5"/>
  
  <!-- Mouth -->
  <path d="M90 90 Q 100 95 110 90" stroke="#333333" stroke-width="1"/>
  
  <!-- Neck -->
  <rect x="92.5" y="105" width="15" height="20" fill="#FFCC80"/>
  
  <!-- Body/Suit -->
  <path d="M75 125 L 125 125 L 135 180 L 65 180 Z" fill="#455A64"/>
  <rect x="75" y="125" width="50" height="15" fill="#FFFFFF"/>
  
  <!-- Tie -->
  <path d="M97.5 125 L 102.5 125 L 105 140 L 100 150 L 95 140 L 97.5 125 Z" fill="#F44336"/>
  
  <!-- Text -->
  <text x="100" y="195" font-family="Arial" font-size="10" fill="#FFFFFF" text-anchor="middle">JAMES WILSON</text>
</svg>